<?xml version="1.0" standalone="no"?>
<!DOCTYPE svg PUBLIC "-//W3C//DTD SVG 20010904//EN"
 "http://www.w3.org/TR/2001/REC-SVG-20010904/DTD/svg10.dtd">
<svg version="1.0" xmlns="http://www.w3.org/2000/svg"
 width="500.000000pt" height="500.000000pt" viewBox="0 0 500.000000 500.000000"
 preserveAspectRatio="xMidYMid meet">

<g transform="translate(0.000000,500.000000) scale(0.100000,-0.100000)"
fill="#000000" stroke="none">
<path d="M3167 4860 c-76 -19 -184 -87 -238 -148 -19 -22 -46 -54 -62 -72 -24
-28 -31 -31 -65 -27 -20 3 -71 17 -112 32 -109 39 -176 32 -301 -31 -142 -71
-174 -96 -205 -159 -24 -50 -27 -70 -32 -191 l-5 -135 -48 -41 c-73 -61 -83
-90 -75 -219 11 -179 -14 -222 -149 -253 -89 -20 -156 -46 -275 -106 -337
-170 -477 -285 -640 -526 -83 -123 -199 -350 -233 -459 -53 -167 -94 -397
-103 -570 -5 -111 -3 -145 16 -234 34 -166 90 -273 210 -400 82 -88 86 -105
58 -283 -14 -94 -22 -191 -22 -283 -1 -135 0 -142 28 -200 35 -71 122 -160
183 -187 67 -29 190 -44 261 -31 73 14 187 63 262 112 144 95 368 357 527 616
80 130 228 483 278 660 9 33 27 96 40 140 50 166 89 672 66 848 -16 120 -30
157 -79 204 -58 55 -112 68 -249 60 -222 -14 -356 -94 -462 -275 -71 -123 -84
-169 -85 -312 -1 -141 -10 -115 114 -331 93 -163 103 -196 98 -322 -8 -180
-64 -269 -227 -367 -110 -65 -162 -80 -280 -80 -104 1 -148 8 -256 42 -60 20
-79 32 -137 90 -93 93 -103 114 -139 298 -34 170 -23 310 51 665 5 28 22 86
37 130 70 216 269 520 417 640 166 134 410 264 587 311 50 13 99 28 109 34 51
27 101 -4 171 -107 17 -26 46 -63 63 -82 44 -47 171 -140 224 -163 70 -32 203
-49 317 -42 120 7 161 17 238 55 146 72 260 170 329 284 18 29 41 56 51 59 32
8 110 -22 246 -94 158 -83 166 -89 259 -193 208 -234 294 -522 252 -847 -15
-112 -102 -287 -125 -250 -4 6 -11 80 -15 163 -8 152 -30 258 -67 331 -29 58
-122 173 -186 232 -58 53 -74 62 -158 86 -145 43 -344 85 -454 98 -326 36
-461 37 -530 4 -79 -37 -100 -116 -67 -249 56 -221 58 -476 8 -736 -57 -289
-110 -464 -228 -754 -28 -68 -100 -211 -161 -320 -77 -136 -219 -311 -335
-413 -154 -134 -263 -225 -294 -244 -34 -21 -36 -52 -5 -72 46 -30 195 -78
307 -98 101 -18 160 -20 495 -22 369 -1 382 0 452 22 105 33 178 67 270 127
86 56 277 234 328 305 17 23 51 67 76 98 145 181 288 447 368 686 32 94 82
227 112 295 49 113 61 133 131 205 143 151 194 236 234 395 54 210 41 436 -36
659 -46 133 -64 165 -163 299 -153 204 -329 330 -605 428 -29 11 -59 26 -66
35 -7 8 -29 53 -48 100 -69 164 -72 207 -18 235 42 22 85 84 109 158 35 107
71 287 71 354 0 126 -81 262 -190 318 -39 20 -167 29 -223 15z m190 -161 c53
-26 78 -70 87 -154 7 -73 -6 -134 -34 -157 -19 -15 -25 -14 -123 37 -75 40
-124 58 -187 69 -46 9 -88 22 -92 29 -13 18 -3 80 18 112 10 15 45 40 79 56
78 37 185 41 252 8z m-708 -179 c21 -10 41 -26 44 -35 9 -21 -26 -51 -99 -85
-34 -16 -89 -54 -123 -85 -34 -30 -68 -55 -76 -55 -24 0 -45 42 -45 93 0 80
32 132 105 170 44 23 146 22 194 -3z m401 -120 c254 -27 392 -135 304 -239
-35 -42 -67 -40 -167 8 -125 60 -204 80 -310 82 -141 2 -194 -10 -325 -73 -46
-22 -89 -37 -97 -34 -35 13 -13 43 78 108 160 114 234 143 407 156 8 1 58 -3
110 -8z m-35 -246 c75 -19 155 -59 206 -102 48 -41 68 -101 76 -232 7 -111 -6
-148 -60 -177 -27 -15 -61 -18 -232 -18 l-200 0 -95 39 c-52 22 -108 48 -125
58 -42 25 -81 24 -88 -3 -9 -33 -1 -43 81 -92 140 -84 265 -112 460 -104 70 2
152 12 182 20 41 11 57 12 62 4 31 -50 -105 -208 -237 -275 -57 -28 -170 -63
-246 -76 -42 -7 -191 17 -250 41 -51 20 -145 94 -194 153 -41 50 -65 94 -97
177 -25 68 -51 106 -84 124 -47 25 -68 75 -67 156 2 88 24 126 82 144 47 14
71 3 119 -52 19 -22 39 -39 46 -39 8 0 30 28 50 63 30 52 49 70 112 110 112
72 195 96 329 97 69 0 133 -6 170 -16z"/>
<path d="M2725 4012 c-9 -15 -32 -39 -51 -51 -50 -34 -39 -46 42 -46 l69 0 3
38 c3 38 -18 87 -38 87 -5 0 -16 -13 -25 -28z"/>
<path d="M3056 3978 c-3 -7 -7 -31 -10 -53 -3 -23 -14 -47 -26 -57 -15 -12
-19 -23 -14 -42 8 -31 -16 -45 -49 -27 -12 7 -34 19 -50 27 -15 8 -36 12 -47
9 -26 -8 -36 -43 -17 -62 21 -22 113 -54 167 -60 60 -6 85 19 85 86 1 25 6 56
13 68 13 23 16 81 6 107 -7 19 -53 22 -58 4z"/>
</g>
</svg>
